<svg width="50" height="50" viewBox="0 0 50 50" fill="none" xmlns="http://www.w3.org/2000/svg">
<path d="M18.9314 18.74C13.2296 20.8553 10.3086 27.2293 12.4071 32.9767C12.7947 34.0383 13.3265 35.0043 13.9718 35.8604C14.1148 36.0501 14.3888 36.0708 14.5657 35.9123L30.3565 21.7592C30.5314 21.6023 30.5427 21.3312 30.3742 21.1675C27.4333 18.3093 23.0224 17.2224 18.9314 18.74Z" fill="#FFA63E"/>
<path fill-rule="evenodd" clip-rule="evenodd" d="M14.596 6.86546C15.4066 6.56949 16.3037 6.98669 16.5997 7.79729L17.9169 11.4049C18.2129 12.2156 17.7957 13.1126 16.9851 13.4086C16.1745 13.7045 15.2774 13.2873 14.9814 12.4767L13.6642 8.86908C13.3682 8.05848 13.7854 7.16143 14.596 6.86546ZM32.5163 7.79464C33.3008 8.15415 33.6453 9.08155 33.2858 9.86604L31.7743 13.1642C31.4148 13.9487 30.4874 14.2932 29.7029 13.9337C28.9184 13.5742 28.5739 12.6468 28.9334 11.8623L30.4449 8.56413C30.8044 7.77964 31.7318 7.43513 32.5163 7.79464ZM18.388 17.2751C23.0674 15.5391 28.1083 16.7865 31.4632 20.047C32.3099 20.8699 32.218 22.189 31.3994 22.9227L15.6086 37.0758C14.7817 37.817 13.4431 37.7548 12.7242 36.801C11.9867 35.8227 11.3805 34.7206 10.9394 33.5126C8.54909 26.9659 11.8718 19.6925 18.388 17.2751ZM1.54171 19.2797C1.90597 18.4974 2.83545 18.1585 3.61774 18.5228L6.88971 20.0464C7.67201 20.4106 8.01088 21.3401 7.64662 22.1224C7.28235 22.9047 6.35288 23.2436 5.57058 22.8793L2.29861 21.3558C1.51632 20.9915 1.17744 20.062 1.54171 19.2797ZM6.98957 34.9864C7.28973 35.7955 6.87717 36.6947 6.06811 36.9948L2.62678 38.2715C1.81772 38.5717 0.918525 38.1591 0.618372 37.3501C0.31822 36.541 0.730773 35.6418 1.53984 35.3416L4.98116 34.065C5.79022 33.7648 6.68942 34.1774 6.98957 34.9864Z" fill="#FFA63E"/>
<path fill-rule="evenodd" clip-rule="evenodd" d="M32.0763 42.4845C31.386 42.1808 30.6037 42.1624 29.8999 42.4333L29.6217 42.5405C28.2706 43.0607 26.7743 43.0607 25.4232 42.5405C24.6317 42.2357 23.7434 42.318 23.0214 42.7628L22.6286 43.0047C21.8939 43.4574 20.9313 43.2287 20.4787 42.494C20.0261 41.7592 20.2548 40.7967 20.9895 40.3441L21.3823 40.1021C22.9347 39.1458 24.8445 38.969 26.546 39.6242C27.1745 39.8661 27.8704 39.8661 28.4989 39.6242L28.7771 39.517C30.2509 38.9496 31.8894 38.9881 33.3349 39.6242C33.9248 39.8837 34.5851 39.9361 35.2085 39.7729L36.3043 39.486C37.1391 39.2674 37.993 39.767 38.2116 40.6018C38.4302 41.4366 37.9306 42.2905 37.0958 42.5091L36 42.796C34.6944 43.1378 33.3116 43.0281 32.0763 42.4845Z" fill="#BFBFBF"/>
<path fill-rule="evenodd" clip-rule="evenodd" d="M41.6241 32.3108C40.6733 32.004 39.653 31.9851 38.6916 32.2566L37.6275 32.557C36.1721 32.968 34.6313 32.968 33.1759 32.557L32.5096 32.3689C31.361 32.0446 30.1348 32.1362 29.0471 32.6276L28.254 32.9858C27.4676 33.3411 26.5421 32.9916 26.1868 32.2052C25.8315 31.4188 26.181 30.4933 26.9675 30.138L27.7605 29.7797C29.5191 28.9852 31.5017 28.8371 33.3587 29.3615L34.0251 29.5496C34.9252 29.8038 35.8782 29.8038 36.7784 29.5496L37.8424 29.2492C39.3969 28.8103 41.0465 28.8407 42.5837 29.3368L43.2542 29.5531C44.065 29.8148 44.9286 29.8677 45.7653 29.7071L47.622 29.3506C48.4695 29.1879 49.2884 29.743 49.4511 30.5904C49.6138 31.4379 49.0587 32.2568 48.2113 32.4195L46.3545 32.776C45.0018 33.0357 43.6054 32.9501 42.2945 32.5271L41.6241 32.3108Z" fill="#BFBFBF"/>
</svg>
