<svg width="46" height="36" viewBox="0 0 46 36" fill="none" xmlns="http://www.w3.org/2000/svg">
<path d="M29.2499 28.3146C32.0919 28.3496 33.6557 28.3924 35.5127 28.3924C46.8324 29.0581 45.6873 15.8593 37.5626 15.8439C37.416 15.8437 37.3111 15.6868 37.3647 15.5504C42.7822 1.77158 18.5658 -5.65016 14.7443 10.5042C14.7255 10.5835 14.6587 10.6484 14.5784 10.6622C8.40416 11.7243 5.61275 16.765 6.49157 21.1985" stroke="#337EEE" stroke-width="2.5" stroke-linecap="round"/>
<path d="M24.1945 25.0464C27.8801 15.5788 10.8684 10.5115 8.13727 21.6052C8.1178 21.6843 8.04945 21.7487 7.9692 21.7625C-0.329467 23.1942 0.0564182 34.5659 10.5307 33.9965C12.9644 33.8642 19.7257 34.0304 22.845 34.0304C28.1302 34.334 29.581 30.4713 28.3092 27.7972C27.6609 26.4341 26.305 25.3798 24.3888 25.3439C24.2417 25.3412 24.1411 25.1835 24.1945 25.0464Z" stroke="#ADCEFF" stroke-width="2.5"/>
</svg>
