<svg width="50" height="50" viewBox="0 0 50 50" fill="none" xmlns="http://www.w3.org/2000/svg">
<path fill-rule="evenodd" clip-rule="evenodd" d="M25.0001 2.60419C25.863 2.60419 26.5626 3.30374 26.5626 4.16669V7.77783C26.5626 8.64077 25.863 9.34033 25.0001 9.34033C24.1371 9.34033 23.4376 8.64077 23.4376 7.77783V4.16669C23.4376 3.30374 24.1371 2.60419 25.0001 2.60419ZM40.6883 9.31186C41.2985 9.92206 41.2985 10.9114 40.6883 11.5216L38.2751 13.9348C37.6649 14.545 36.6756 14.545 36.0654 13.9348C35.4552 13.3246 35.4552 12.3353 36.0654 11.7251L38.4786 9.31186C39.0888 8.70167 40.0781 8.70167 40.6883 9.31186ZM9.31189 9.31186C9.92209 8.70167 10.9114 8.70167 11.5216 9.31186L13.9348 11.7251C14.545 12.3353 14.545 13.3246 13.9348 13.9348C13.3246 14.545 12.3353 14.545 11.7251 13.9348L9.31189 11.5216C8.7017 10.9114 8.7017 9.92206 9.31189 9.31186ZM2.60425 25.0001C2.60425 24.1371 3.3038 23.4376 4.16675 23.4376H7.63897C8.50192 23.4376 9.20147 24.1371 9.20147 25.0001C9.20147 25.863 8.50192 26.5626 7.63897 26.5626H4.16675C3.3038 26.5626 2.60425 25.863 2.60425 25.0001ZM40.7987 25.0001C40.7987 24.1371 41.4982 23.4376 42.3612 23.4376H45.8334C46.6964 23.4376 47.3959 24.1371 47.3959 25.0001C47.3959 25.863 46.6964 26.5626 45.8334 26.5626H42.3612C41.4982 26.5626 40.7987 25.863 40.7987 25.0001ZM13.9348 36.0653C14.545 36.6755 14.545 37.6648 13.9348 38.275L11.348 40.8619C10.7378 41.472 9.74848 41.472 9.13828 40.8619C8.52809 40.2517 8.52809 39.2623 9.13828 38.6521L11.7251 36.0653C12.3353 35.4551 13.3246 35.4551 13.9348 36.0653ZM36.0654 36.0653C36.6756 35.4551 37.6649 35.4551 38.2751 36.0653L40.6882 38.4785C41.2984 39.0887 41.2984 40.078 40.6882 40.6882C40.078 41.2984 39.0887 41.2984 38.4785 40.6882L36.0654 38.275C35.4552 37.6648 35.4552 36.6755 36.0654 36.0653ZM25.0001 40.7987C25.863 40.7987 26.5626 41.4982 26.5626 42.3612V45.8334C26.5626 46.6963 25.863 47.3959 25.0001 47.3959C24.1371 47.3959 23.4376 46.6963 23.4376 45.8334V42.3612C23.4376 41.4982 24.1371 40.7987 25.0001 40.7987Z" fill="#FECB47"/>
<path fill-rule="evenodd" clip-rule="evenodd" d="M13.021 25C13.021 18.3841 18.3843 13.0209 25.0002 13.0209C31.6161 13.0209 36.9793 18.3841 36.9793 25C36.9793 31.616 31.6161 36.9792 25.0002 36.9792C18.3843 36.9792 13.021 31.616 13.021 25Z" fill="#FFA43A"/>
</svg>
