<svg width="50" height="50" viewBox="0 0 50 50" fill="none" xmlns="http://www.w3.org/2000/svg">
<path fill-rule="evenodd" clip-rule="evenodd" d="M42.1319 21.8207C43.7593 24.0865 44.4482 26.9256 43.6672 30.0519C47.5377 30.8966 49.6914 34.3824 49.4876 37.7321C49.3728 39.6195 48.515 41.4866 46.8238 42.817C45.1464 44.1364 42.7873 44.8233 39.8243 44.6643C38.3649 44.6638 36.3875 44.6391 34.278 44.6126C30.0439 44.5596 25.277 44.5 23.095 44.6165C19.2466 44.822 16.1601 43.9594 13.9256 42.3626C11.6858 40.7621 10.3947 38.4848 10.0777 36.0789C9.46198 31.4055 12.5151 26.5881 18.4395 25.2281C19.5858 21.4932 21.925 18.9946 24.7879 17.6253C27.7766 16.1958 31.2311 16.0428 34.3324 16.8116C37.4274 17.5788 40.3235 19.3028 42.1319 21.8207Z" fill="#E7E7E7"/>
<path fill-rule="evenodd" clip-rule="evenodd" d="M9.74043 6.08262C10.5424 5.76398 11.4508 6.15579 11.7695 6.95775L12.6713 9.22748C12.9899 10.0294 12.5981 10.9379 11.7961 11.2565C10.9942 11.5752 10.0858 11.1833 9.76712 10.3814L8.8653 8.11165C8.54666 7.30969 8.93847 6.40126 9.74043 6.08262ZM21.5808 6.35794C22.3751 6.69525 22.7456 7.61259 22.4082 8.40688L21.5064 10.5305C21.1691 11.3247 20.2518 11.6952 19.4575 11.3579C18.6632 11.0206 18.2927 10.1032 18.63 9.30893L19.5319 7.18536C19.8692 6.39107 20.7865 6.02062 21.5808 6.35794ZM12.3342 12.633C15.5998 11.316 19.1883 12.17 21.5345 14.5006L22.9127 15.8698L21.1658 16.996C19.2751 18.2149 17.9192 20.1078 17.3736 22.2903L17.123 23.2926L15.981 23.6733C14.3329 24.2226 12.8115 25.0962 11.5062 26.2425L10.0983 27.4791L9.06826 26.2897C8.45028 25.5761 7.94067 24.7488 7.57383 23.8255C5.82293 19.4188 7.94202 14.4045 12.3342 12.633ZM1.35193 14.5105C1.69406 13.7183 2.61364 13.3534 3.40586 13.6956L5.513 14.6055C6.30523 14.9477 6.6701 15.8672 6.32797 16.6595C5.98584 17.4517 5.06627 17.8166 4.27404 17.4744L2.1669 16.5645C1.37468 16.2223 1.0098 15.3028 1.35193 14.5105ZM6.14563 24.4102C6.46841 25.2105 6.0813 26.1209 5.281 26.4437L3.11627 27.3168C2.31597 27.6396 1.40553 27.2524 1.08275 26.4521C0.759968 25.6518 1.14708 24.7414 1.94738 24.4186L4.1121 23.5455C4.91241 23.2228 5.82285 23.6099 6.14563 24.4102Z" fill="#FFA63E"/>
</svg>
