<svg width="50" height="50" viewBox="0 0 50 50" fill="none" xmlns="http://www.w3.org/2000/svg">
<path fill-rule="evenodd" clip-rule="evenodd" d="M41.4706 21.5702C42.3238 18.2626 41.6668 15.2629 40.0489 12.8693C38.27 10.2376 35.394 8.42194 32.3031 7.61071C29.2069 6.79808 25.7615 6.95743 22.7893 8.45209C19.927 9.89149 17.5946 12.527 16.472 16.4839C11.9855 17.5243 9.16078 20.6395 8.29932 24.1817C9.37932 22.3151 10.869 20.958 12.5847 20.0923C15.1462 18.7998 18.087 18.6609 20.7179 19.3379C23.3425 20.0133 25.8199 21.5429 27.3971 23.8028C28.7825 25.7877 29.4178 28.2678 28.8932 30.9934C30.7936 31.5764 32.1966 32.9486 32.9562 34.6069C33.2428 35.2325 33.4402 35.9049 33.5395 36.5956C35.1812 36.6166 36.6864 36.6333 37.8566 36.6337C40.8211 36.8018 43.1556 36.0756 44.7998 34.7074C46.4546 33.3304 47.2836 31.4049 47.3852 29.4649C47.5674 25.984 45.3876 22.3518 41.4706 21.5702Z" fill="#D9EBFF"/>
<path fill-rule="evenodd" clip-rule="evenodd" d="M26.7134 31.136C27.1534 28.9346 26.6206 26.9314 25.4589 25.3283C24.1362 23.503 22.0587 22.2676 19.8577 21.7221C17.6515 21.1753 15.1853 21.2875 13.0372 22.3314C11.0071 23.318 9.35438 25.0946 8.51165 27.7028C4.35307 28.7784 2.20596 32.3026 2.66524 35.7214C2.90444 37.5019 3.85119 39.1878 5.48582 40.371C7.11692 41.5516 9.34141 42.1698 12.0658 42.0217C13.5589 41.9406 16.8166 41.9821 19.73 42.0193C21.1886 42.038 22.5608 42.0555 23.5822 42.0559C26.4352 42.2088 28.5732 41.2378 29.7472 39.5237C30.8917 37.8527 30.9235 35.7426 30.1207 34.0545C29.4836 32.7151 28.3071 31.6069 26.7134 31.136Z" fill="#EEEEEE"/>
</svg>
