<svg width="50" height="50" viewBox="0 0 50 50" fill="none" xmlns="http://www.w3.org/2000/svg">
<path fill-rule="evenodd" clip-rule="evenodd" d="M41.9096 24.7313C42.6997 21.8113 42.0914 19.1632 40.5933 17.0501C38.9463 14.7268 36.2834 13.124 33.4216 12.4079C30.5548 11.6905 27.3648 11.8312 24.6128 13.1507C21.9627 14.4213 19.8031 16.7479 18.7637 20.241C13.5387 21.3962 10.7439 25.4485 10.9479 29.519C11.1623 33.7973 14.6411 37.6242 20.9318 37.9843L20.9673 37.9863L24.2184 37.9922C24.0553 37.7783 23.9583 37.5111 23.9583 37.2214C23.9583 36.519 24.5277 35.9496 25.2301 35.9496H33.6791C34.8791 35.9496 35.8285 34.9861 35.8285 33.8299C35.8285 32.6672 34.8725 31.7102 33.6791 31.7102C32.4791 31.7102 31.5298 32.6737 31.5298 33.8299C31.5298 34.5323 30.9604 35.1017 30.258 35.1017C29.5556 35.1017 28.9862 34.5323 28.9862 33.8299C28.9862 31.2542 31.0891 29.1666 33.6791 29.1666C36.2502 29.1666 38.3721 31.2355 38.3721 33.8299C38.3721 35.6645 37.3051 37.2515 35.7552 38.0128L40.209 38.0208L40.2567 38.0173C42.627 37.8447 44.4556 36.9962 45.6826 35.6955C46.904 34.4009 47.441 32.7498 47.3929 31.1395C47.3065 28.2491 45.3138 25.3798 41.9096 24.7313Z" fill="#BFBFBF"/>
<path fill-rule="evenodd" clip-rule="evenodd" d="M25.74 44.7117C25.74 47.2874 27.843 49.375 30.433 49.375C33.0041 49.375 35.1259 47.3062 35.1259 44.7117C35.1259 42.136 33.023 40.0485 30.433 40.0485H16.8968C16.1944 40.0485 15.625 40.6179 15.625 41.3203C15.625 42.0227 16.1944 42.5921 16.8968 42.5921H30.433C31.6329 42.5921 32.5823 43.5556 32.5823 44.7117C32.5823 45.8744 31.6264 46.8314 30.433 46.8314C29.233 46.8314 28.2836 45.8679 28.2836 44.7117C28.2836 44.0093 27.7142 43.4399 27.0118 43.4399C26.3094 43.4399 25.74 44.0093 25.74 44.7117Z" fill="#CDE3FE"/>
<path fill-rule="evenodd" clip-rule="evenodd" d="M10.4975 2.54925C11.2994 2.23061 12.2079 2.62242 12.5265 3.42438L13.3974 5.6162C13.716 6.41817 13.3242 7.32659 12.5222 7.64523C11.7203 7.96387 10.8119 7.57206 10.4932 6.7701L9.62235 4.57828C9.30371 3.77632 9.69552 2.86789 10.4975 2.54925ZM21.9722 2.81559C22.7665 3.1529 23.137 4.07025 22.7997 4.86453L21.9288 6.91522C21.5915 7.70951 20.6741 8.07996 19.8798 7.74264C19.0856 7.40533 18.7151 6.48798 19.0524 5.6937L19.9233 3.64301C20.2606 2.84873 21.1779 2.47827 21.9722 2.81559ZM13.002 8.87492C16.1762 7.59472 19.6641 8.42493 21.9443 10.6901L23.3226 12.0592L21.6898 13.1119C19.8096 14.324 18.4449 16.2459 17.8994 18.4278L17.6913 19.2599L16.6566 19.6048C15.0086 20.1542 13.4871 21.0278 12.1818 22.1741L10.8577 23.3371L9.82765 22.1477C9.22698 21.4541 8.73171 20.65 8.37521 19.7528C6.67362 15.4702 8.73289 10.5968 13.002 8.87492ZM2.36747 10.7165C2.7096 9.92424 3.62917 9.55936 4.4214 9.90149L6.45621 10.7802C7.24844 11.1224 7.61332 12.0419 7.27119 12.8342C6.92906 13.6264 6.00948 13.9913 5.21725 13.6491L3.18244 12.7704C2.39022 12.4283 2.02534 11.5087 2.36747 10.7165ZM7.0956 20.2775C7.41839 21.0778 7.03128 21.9883 6.23097 22.311L4.14055 23.1542C3.34025 23.4769 2.42981 23.0898 2.10702 22.2895C1.78424 21.4892 2.17135 20.5788 2.97166 20.256L5.06208 19.4129C5.86238 19.0901 6.77282 19.4772 7.0956 20.2775Z" fill="#FFA63E"/>
</svg>
