<svg width="48" height="54" viewBox="0 0 48 54" fill="none" xmlns="http://www.w3.org/2000/svg">
<path d="M10.7734 43.7917V36.0417" stroke="#FF5656" stroke-width="4" stroke-linecap="round"/>
<path d="M4.96899 36.3883C3.65143 37.5522 2.71922 39.0894 2.29622 40.7958C1.87322 42.5021 1.97946 44.2968 2.60082 45.9413C3.22217 47.5859 4.32923 49.0024 5.7749 50.0027C7.22057 51.0031 8.9364 51.5398 10.6944 51.5417C12.4524 51.5435 14.1694 51.0104 15.6171 50.0131C17.0649 49.0158 18.1749 47.6016 18.7997 45.9584C19.4246 44.3152 19.5346 42.5207 19.1152 40.8135C18.6958 39.1062 17.7668 37.567 16.4517 36.4003M16.4781 35.6617V8.23284C16.4781 5.04366 13.8927 2.45833 10.7036 2.45833C7.51439 2.45833 4.92906 5.04366 4.92906 8.23284V35.6617" stroke="#B7D0FF" stroke-width="4" stroke-linecap="round"/>
<path d="M10.6958 43.5334H10.7215" stroke="#FF5656" stroke-width="4" stroke-linecap="round"/>
<path d="M25.55 4.17624L29.9572 9.32999L34.3643 4.17624M41.5021 8.12743L39.1257 14.4237L45.9093 15.5662M41.5886 31.3711L39.2121 25.0748L45.9957 23.9323M25.55 35.0987L29.9572 29.945L34.3643 35.0987M29.9572 2.45833L29.9572 36.8167M45.2239 11.048L29.9572 19.6375M45.3492 28.3492L30.0825 19.7596" stroke="#1F74D8" stroke-width="4" stroke-linecap="round"/>
</svg>
