<svg width="20" height="15" viewBox="0 0 20 15" fill="none" xmlns="http://www.w3.org/2000/svg">
<path fill-rule="evenodd" clip-rule="evenodd" d="M16.8492 7.10541C17.2539 5.49807 16.9253 4.03931 16.1257 2.87159C15.2411 1.57971 13.8132 0.687166 12.2772 0.288485C10.7389 -0.11081 9.02446 -0.0324619 7.54379 0.705455C6.12238 1.41384 4.97221 2.70354 4.41433 4.6236C1.46746 5.32154 -0.00937957 7.79908 0.287432 10.1537C0.440727 11.3698 1.06743 12.5311 2.17 13.3525C3.27192 14.1735 4.79924 14.6199 6.70704 14.5137C7.78651 14.4537 10.1447 14.4844 12.2397 14.5118C13.2836 14.5254 14.2622 14.5381 14.9847 14.5384C16.4561 14.6206 17.6238 14.2638 18.4491 13.5856C19.2782 12.9044 19.6904 11.9561 19.7441 11.0068C19.8392 9.32282 18.7894 7.52383 16.8492 7.10541Z" fill="url(#paint0_linear_511_1316)"/>
<defs>
<linearGradient id="paint0_linear_511_1316" x1="15" y1="-5.05723e-07" x2="3" y2="14" gradientUnits="userSpaceOnUse">
<stop stop-color="#EDE9E9"/>
<stop offset="1" stop-color="#B0B8FF"/>
</linearGradient>
</defs>
</svg>
