<svg width="50" height="50" viewBox="0 0 50 50" fill="none" xmlns="http://www.w3.org/2000/svg">
<path fill-rule="evenodd" clip-rule="evenodd" d="M33.3343 21.8182C33.3343 18.5579 35.8387 15.7387 39.1332 15.7387C42.4047 15.7387 44.932 18.5335 44.932 21.8182C44.932 25.0785 42.4276 27.8976 39.1332 27.8976H30.4799C29.6983 27.8976 29.0647 27.264 29.0647 26.4825C29.0647 25.7009 29.6983 25.0673 30.4799 25.0673H33.3343V21.8182Z" fill="#FFD392"/>
<path fill-rule="evenodd" clip-rule="evenodd" d="M18.1055 16.287C18.1055 12.3095 21.0478 8.80304 25.0003 8.80304C28.9259 8.80304 31.8951 12.2798 31.8951 16.287C31.8951 20.2645 28.9528 23.7709 25.0003 23.7709H12.5541C11.7725 23.7709 11.1389 23.1373 11.1389 22.3558C11.1389 21.5742 11.7725 20.9406 12.5541 20.9406H18.1055V16.287Z" fill="#CCCBCA"/>
<path opacity="0.9" fill-rule="evenodd" clip-rule="evenodd" d="M41.4681 6.83517C41.8365 7.20362 41.8365 7.80098 41.4681 8.16943L40.1338 9.50369L41.4681 10.8379C41.8365 11.2064 41.8365 11.8038 41.4681 12.1722C41.0996 12.5406 40.5023 12.5406 40.1338 12.1722L38.7996 10.8379L37.4653 12.1722C37.0969 12.5406 36.4995 12.5406 36.131 12.1722C35.7626 11.8038 35.7626 11.2064 36.131 10.8379L37.4653 9.50369L36.131 8.16943C35.7626 7.80098 35.7626 7.20362 36.131 6.83517C36.4995 6.46673 37.0969 6.46673 37.4653 6.83517L38.7996 8.16943L40.1338 6.83517C40.5023 6.46673 41.0996 6.46673 41.4681 6.83517Z" fill="#FFD392"/>
<path opacity="0.9" fill-rule="evenodd" clip-rule="evenodd" d="M40.5245 37.0435C40.8929 37.412 40.8929 38.0093 40.5245 38.3778L39.1902 39.712L40.5245 41.0463C40.8929 41.4147 40.8929 42.0121 40.5245 42.3805C40.156 42.749 39.5587 42.749 39.1902 42.3805L37.856 41.0463L36.5217 42.3805C36.1533 42.749 35.5559 42.749 35.1874 42.3805C34.819 42.0121 34.819 41.4147 35.1874 41.0463L36.5217 39.712L35.1874 38.3778C34.819 38.0093 34.819 37.412 35.1874 37.0435C35.5559 36.6751 36.1533 36.6751 36.5217 37.0435L37.856 38.3778L39.1902 37.0435C39.5587 36.6751 40.156 36.6751 40.5245 37.0435Z" fill="#FFD392"/>
<path fill-rule="evenodd" clip-rule="evenodd" d="M18.1055 36.891C18.1055 40.8686 21.0478 44.375 25.0002 44.375C28.9259 44.375 31.895 40.8983 31.895 36.891C31.895 32.9135 28.9527 29.4071 25.0002 29.4071H7.66519C6.8836 29.4071 6.25 30.0407 6.25 30.8223C6.25 31.6039 6.8836 32.2375 7.66519 32.2375H18.1055V36.891Z" fill="#CCCBCA"/>
</svg>
