<svg width="50" height="50" viewBox="0 0 50 50" fill="none" xmlns="http://www.w3.org/2000/svg">
<path fill-rule="evenodd" clip-rule="evenodd" d="M34.583 25.0643C31.6145 24.2096 28.4262 24.5975 25.7494 26.139C22.1328 28.2218 17.7838 28.6109 13.8549 27.203L8.88503 25.4221C8.14825 25.1581 7.76499 24.3468 8.02901 23.61C8.29302 22.8732 9.10433 22.49 9.84111 22.754L14.811 24.5349C17.9569 25.6621 21.4391 25.3507 24.3349 23.683C27.6781 21.7577 31.66 21.2732 35.3672 22.3407L39.9872 23.671C40.7393 23.8876 41.1735 24.6728 40.9569 25.4249C40.7404 26.177 39.9551 26.6112 39.203 26.3946L34.583 25.0643Z" fill="#A198FF"/>
<path fill-rule="evenodd" clip-rule="evenodd" d="M37.0579 36.3666C33.2934 35.4978 29.2946 35.9222 25.7771 37.5398C21.3658 39.5686 16.3166 39.9759 11.6405 38.6354L5.1936 36.7873C4.44125 36.5716 4.00619 35.7869 4.22186 35.0345C4.43754 34.2822 5.22228 33.8471 5.97463 34.0628L12.4215 35.9109C16.4371 37.062 20.7894 36.714 24.5928 34.9648C28.6727 33.0886 33.3116 32.5933 37.6952 33.6049L43.6928 34.989C44.4555 35.1649 44.931 35.9258 44.755 36.6885C44.579 37.4511 43.8181 37.9266 43.0555 37.7506L37.0579 36.3666Z" fill="#B3B3B3"/>
<path fill-rule="evenodd" clip-rule="evenodd" d="M37.0579 13.6926C33.2934 12.8238 29.2946 13.2482 25.7771 14.8658C21.3658 16.8946 16.3166 17.3019 11.6405 15.9614L5.1936 14.1133C4.44125 13.8976 4.00619 13.1129 4.22186 12.3605C4.43754 11.6082 5.22228 11.1731 5.97463 11.3888L12.4215 13.2369C16.4371 14.388 20.7894 14.04 24.5928 12.2908C28.6727 10.4146 33.3116 9.9193 37.6952 10.9309L43.6928 12.315C44.4555 12.491 44.931 13.2518 44.755 14.0145C44.579 14.7771 43.8181 15.2526 43.0555 15.0766L37.0579 13.6926Z" fill="#B3B3B3"/>
</svg>
