<svg width="50" height="50" viewBox="0 0 50 50" fill="none" xmlns="http://www.w3.org/2000/svg">
<path fill-rule="evenodd" clip-rule="evenodd" d="M3.125 20.3125C3.125 27.1293 6.95216 33.0192 12.5 35.798V32.1879C8.76592 29.7113 6.25 25.358 6.25 20.3125C6.25 12.4382 12.3778 6.25 19.7004 6.25C25.9123 6.25 31.2643 10.7032 32.7451 16.8612L32.7498 16.8592C32.9589 17.7136 33.0923 18.5995 33.1419 19.5086C34.1155 19.0206 35.1987 18.75 36.327 18.75C40.3208 18.75 43.75 22.14 43.75 26.5625C43.75 29.2351 42.4976 31.5307 40.625 32.9289V36.5538C44.3082 34.8476 46.875 31.0158 46.875 26.5625C46.875 20.5219 42.1525 15.625 36.327 15.625C36.1023 15.625 35.8791 15.6323 35.6578 15.6467C33.697 8.42151 27.2952 3.125 19.7004 3.125C10.5461 3.125 3.125 10.8201 3.125 20.3125ZM29.2484 31.5666C29.576 31.7558 30.0893 31.6732 30.3517 31.2185C30.4954 30.9694 30.6802 30.4522 30.814 29.6102C30.8673 29.2745 30.9076 28.9204 30.9367 28.5569C30.0241 29.2026 29.3326 29.857 28.9981 30.4367C28.7356 30.8914 28.9207 31.3773 29.2484 31.5666ZM30.9287 24.8777C32.5574 23.9652 33.9363 23.444 33.9363 23.444C33.9363 23.444 34.1167 24.9113 34.1237 26.76C34.1314 28.7852 33.9311 31.2682 33.0578 32.7814C31.9595 34.6843 29.5546 35.3522 27.6863 34.2731C25.818 33.1941 25.1937 30.7767 26.292 28.8738C27.2504 27.2132 29.226 25.8316 30.9287 24.8777ZM18.9314 33.1567C19.2591 33.346 19.7723 33.2633 20.0348 32.8086C20.1785 32.5596 20.3632 32.0424 20.497 31.2004C20.5504 30.8647 20.5906 30.5106 20.6197 30.1471C19.7071 30.7927 19.0157 31.4471 18.6811 32.0268C18.4187 32.4815 18.6038 32.9675 18.9314 33.1567ZM20.6118 26.4678C22.2405 25.5554 23.6194 25.0341 23.6194 25.0341C23.6194 25.0341 23.7997 26.5014 23.8068 28.3502C23.8145 30.3754 23.6142 32.8583 22.7409 34.3715C21.6426 36.2745 19.2377 36.9423 17.3694 35.8633C15.501 34.7842 14.8768 32.3668 15.975 30.4639C16.9334 28.8033 18.9091 27.4218 20.6118 26.4678ZM33.8739 40.8013C33.6115 41.2561 33.0982 41.3387 32.7706 41.1494C32.4429 40.9602 32.2578 40.4743 32.5203 40.0195C32.8548 39.4398 33.5463 38.7854 34.4589 38.1398C34.4298 38.5033 34.3895 38.8574 34.3362 39.1931C34.2024 40.0351 34.0176 40.5523 33.8739 40.8013ZM37.4585 33.0268C37.4585 33.0268 36.0796 33.5481 34.451 34.4606C32.7483 35.4145 30.7726 36.7961 29.8142 38.4566C28.7159 40.3596 29.3402 42.7769 31.2085 43.856C33.0768 44.9351 35.4817 44.2672 36.58 42.3642C37.4533 40.8511 37.6536 38.3681 37.6459 36.3429C37.6389 34.4941 37.4585 33.0268 37.4585 33.0268ZM22.2732 43.6524C22.6009 43.8416 23.1141 43.759 23.3765 43.3043C23.5203 43.0553 23.705 42.5381 23.8388 41.696C23.8922 41.3603 23.9324 41.0063 23.9615 40.6427C23.0489 41.2884 22.3575 41.9428 22.0229 42.5225C21.7605 42.9772 21.9456 43.4631 22.2732 43.6524ZM23.9536 36.9635C25.5822 36.051 26.9611 35.5298 26.9611 35.5298C26.9611 35.5298 27.1415 36.9971 27.1485 38.8458C27.1563 40.871 26.956 43.354 26.0826 44.8672C24.9844 46.7701 22.5795 47.438 20.7111 46.3589C18.8428 45.2799 18.2185 42.8625 19.3168 40.9596C20.2752 39.299 22.2509 37.9175 23.9536 36.9635Z" fill="url(#paint0_linear_9_2362)"/>
<defs>
<linearGradient id="paint0_linear_9_2362" x1="25" y1="3.125" x2="25" y2="46.875" gradientUnits="userSpaceOnUse">
<stop stop-color="#95B6F6"/>
<stop offset="1" stop-color="#5193DE"/>
</linearGradient>
</defs>
</svg>
