<svg width="62" height="62" viewBox="0 0 62 62" fill="none" xmlns="http://www.w3.org/2000/svg">
<path d="M44.9232 14.6226L47.1974 12.3484M33.4541 9.86147V6.45833M33.4541 42.4528V45.725M49.8152 26.0917H53.0874M47.1974 39.835L44.9232 37.5608" stroke="#FFB55F" stroke-width="4" stroke-linecap="round" stroke-linejoin="round"/>
<path d="M33.4541 35.9083C38.8757 35.9083 43.2708 31.5133 43.2708 26.0917C43.2708 20.6701 38.8757 16.275 33.4541 16.275" stroke="#FA9C2D" stroke-width="4" stroke-linecap="round"/>
<path d="M12.4856 40.3883C11.168 41.5522 10.2358 43.0894 9.81282 44.7958C9.38982 46.5021 9.49606 48.2968 10.1174 49.9413C10.7388 51.5859 11.8458 53.0024 13.2915 54.0027C14.7372 55.0031 16.453 55.5398 18.211 55.5417C19.969 55.5435 21.686 55.0104 23.1337 54.0131C24.5815 53.0158 25.6915 51.6016 26.3164 49.9584C26.9412 48.3152 27.0512 46.5207 26.6318 44.8135C26.2124 43.1062 25.2834 41.567 23.9683 40.4003M23.9947 39.6617V12.2328C23.9947 9.04366 21.4093 6.45833 18.2202 6.45833C15.031 6.45833 12.4457 9.04366 12.4457 12.2328V39.6617" stroke="#B7D0FF" stroke-width="4" stroke-linecap="round"/>
<path d="M18.29 47.7917V18.0833" stroke="#FF5656" stroke-width="4" stroke-linecap="round"/>
<path d="M18.2124 47.5334H18.2382" stroke="#FF5656" stroke-width="4" stroke-linecap="round"/>
</svg>
