<svg width="23" height="23" viewBox="0 0 23 23" fill="none" xmlns="http://www.w3.org/2000/svg">
<path fill-rule="evenodd" clip-rule="evenodd" d="M9.74043 1.08262C10.5424 0.763983 11.4508 1.15579 11.7695 1.95775L12.6713 4.22748C12.9899 5.02944 12.5981 5.93787 11.7961 6.25651C10.9942 6.57515 10.0858 6.18334 9.76712 5.38138L8.8653 3.11165C8.54666 2.30969 8.93847 1.40126 9.74043 1.08262ZM21.5808 1.35794C22.3751 1.69525 22.7456 2.61259 22.4082 3.40688L21.5064 5.53045C21.1691 6.32474 20.2518 6.69519 19.4575 6.35788C18.6632 6.02056 18.2927 5.10322 18.63 4.30893L19.5319 2.18536C19.8692 1.39107 20.7865 1.02062 21.5808 1.35794ZM12.3342 7.63302C15.5998 6.31595 19.1883 7.16995 21.5345 9.50063L22.9127 10.8698L21.1658 11.996C19.2751 13.2149 17.9192 15.1078 17.3736 17.2903L17.123 18.2926L15.981 18.6733C14.3329 19.2226 12.8115 20.0962 11.5062 21.2425L10.0983 22.4791L9.06826 21.2897C8.45028 20.5761 7.94067 19.7488 7.57383 18.8255C5.82293 14.4188 7.94202 9.40451 12.3342 7.63302ZM1.35193 9.51053C1.69406 8.7183 2.61364 8.35343 3.40586 8.69556L5.513 9.60554C6.30523 9.94767 6.6701 10.8672 6.32797 11.6595C5.98584 12.4517 5.06627 12.8166 4.27404 12.4744L2.1669 11.5645C1.37468 11.2223 1.0098 10.3028 1.35193 9.51053ZM6.14563 19.4102C6.46841 20.2105 6.0813 21.1209 5.281 21.4437L3.11627 22.3168C2.31597 22.6396 1.40553 22.2524 1.08275 21.4521C0.759968 20.6518 1.14708 19.7414 1.94738 19.4186L4.1121 18.5455C4.91241 18.2228 5.82285 18.6099 6.14563 19.4102Z" fill="#FFA63E"/>
</svg>
