<svg width="24" height="24" viewBox="0 0 24 24" fill="none" xmlns="http://www.w3.org/2000/svg">
<path fill-rule="evenodd" clip-rule="evenodd" d="M18.8492 9.55537C19.2539 7.94803 18.9253 6.48926 18.1257 5.32154C17.2411 4.02966 15.8132 3.13712 14.2772 2.73844C12.7389 2.33914 11.0245 2.41749 9.54379 3.15541C8.12238 3.86379 6.97221 5.15349 6.41433 7.07355C3.46746 7.77149 1.99062 10.249 2.28743 12.6037C2.44073 13.8198 3.06743 14.981 4.17 15.8025C5.27192 16.6235 6.79924 17.0699 8.70704 16.9637C9.78651 16.9036 12.1447 16.9344 14.2397 16.9617C15.2836 16.9753 16.2622 16.9881 16.9847 16.9883C18.4561 17.0706 19.6238 16.7137 20.4491 16.0356C21.2782 15.3544 21.6904 14.4061 21.7441 13.4567C21.8392 11.7728 20.7894 9.97378 18.8492 9.55537Z" fill="#D8D4D4"/>
<path fill-rule="evenodd" clip-rule="evenodd" d="M8.67089 17.8958C9.03044 18.1015 9.15518 18.5597 8.94951 18.9192L7.83924 20.8602C7.63357 21.2197 7.17537 21.3444 6.81583 21.1388C6.45628 20.9331 6.33154 20.4749 6.53721 20.1154L7.64748 18.1744C7.85315 17.8149 8.31135 17.6901 8.67089 17.8958Z" fill="#3B457A"/>
<path fill-rule="evenodd" clip-rule="evenodd" d="M14.2707 17.9959C14.6303 18.2016 14.755 18.6598 14.5494 19.0193L13.4391 20.9603C13.2334 21.3198 12.7752 21.4445 12.4157 21.2389C12.0561 21.0332 11.9314 20.575 12.1371 20.2155L13.2473 18.2745C13.453 17.915 13.9112 17.7902 14.2707 17.9959Z" fill="#3B457A"/>
<path fill-rule="evenodd" clip-rule="evenodd" d="M10.8897 19.1536C11.2511 19.356 11.38 19.813 11.1776 20.1744L10.6313 21.1499C10.4289 21.5113 9.97182 21.6402 9.61042 21.4378C9.24902 21.2354 9.12013 20.7783 9.32253 20.4169L9.86884 19.4414C10.0712 19.0801 10.5283 18.9512 10.8897 19.1536Z" fill="#3B457A"/>
<path fill-rule="evenodd" clip-rule="evenodd" d="M16.7659 19.2736C17.1273 19.476 17.2562 19.933 17.0538 20.2944L16.5075 21.2699C16.3051 21.6313 15.848 21.7602 15.4866 21.5578C15.1252 21.3554 14.9964 20.8983 15.1988 20.5369L15.7451 19.5614C15.9475 19.2 16.4045 19.0712 16.7659 19.2736Z" fill="#3B457A"/>
</svg>
