<svg width="50" height="50" viewBox="0 0 50 50" fill="none" xmlns="http://www.w3.org/2000/svg">
<path fill-rule="evenodd" clip-rule="evenodd" d="M24.9088 4.89584C25.6833 4.89584 26.3111 5.52364 26.3111 6.29807V9.88737L28.478 7.2729C28.9722 6.67665 29.8562 6.5939 30.4524 7.08809C31.0487 7.58228 31.1314 8.46625 30.6372 9.06251L26.3111 14.2822V22.5591L33.4095 18.4385L35.7699 11.9861C36.036 11.2588 36.8413 10.8849 37.5685 11.151C38.2958 11.417 38.6697 12.2223 38.4037 12.9496L37.2008 16.2377L40.3086 14.4336C40.9784 14.0448 41.8365 14.2726 42.2253 14.9423C42.6141 15.6121 42.3863 16.4702 41.7166 16.859L38.6964 18.6122L41.9756 19.1821C42.7386 19.3147 43.2497 20.0407 43.1171 20.8037C42.9845 21.5667 42.2585 22.0777 41.4955 21.9451L34.9225 20.8029L27.6536 25.0225L35.1916 29.3983L41.5867 28.287C42.3497 28.1544 43.0757 28.6655 43.2083 29.4285C43.3409 30.1914 42.8298 30.9175 42.0668 31.05L38.9654 31.589L41.8487 33.2628C42.5185 33.6516 42.7463 34.5097 42.3575 35.1794C41.9687 35.8492 41.1105 36.077 40.4408 35.6882L37.2297 33.8242L38.4949 37.2825C38.7609 38.0098 38.387 38.8151 37.6597 39.0812C36.9325 39.3472 36.1272 38.9733 35.8611 38.246L33.4384 31.6233L26.3111 27.4859V35.7067L30.6372 40.9263C31.1314 41.5226 31.0487 42.4066 30.4524 42.9007C29.8562 43.3949 28.9722 43.3122 28.478 42.7159L26.3111 40.1015V43.6908C26.3111 44.4652 25.6833 45.093 24.9088 45.093C24.1344 45.093 23.5066 44.4652 23.5066 43.6908V40.1015L21.3397 42.7159C20.8455 43.3122 19.9615 43.3949 19.3653 42.9007C18.769 42.4066 18.6863 41.5226 19.1805 40.9263L23.5066 35.7067V27.4298L16.4371 31.5337L14.139 37.8157C13.8729 38.543 13.0676 38.9169 12.3403 38.6508C11.613 38.3848 11.2391 37.5795 11.5052 36.8522L12.6457 33.7345L9.50905 35.5554C8.83929 35.9441 7.98116 35.7164 7.59237 35.0466C7.20358 34.3769 7.43134 33.5187 8.1011 33.1299L11.3904 31.2205L7.93326 30.6197C7.17027 30.4871 6.65922 29.7611 6.79181 28.9981C6.9244 28.2351 7.65041 27.7241 8.4134 27.8567L15.1643 29.0298L22.0674 25.0225L14.8418 20.828L8.4134 21.9451C7.65041 22.0777 6.92439 21.5667 6.79181 20.8037C6.65922 20.0407 7.17027 19.3147 7.93326 19.1821L11.0679 18.6374L8.23327 16.9918C7.56351 16.603 7.33574 15.7449 7.72453 15.0752C8.11333 14.4054 8.97145 14.1776 9.64121 14.5664L12.7587 16.3761L11.5052 12.9496C11.2391 12.2223 11.613 11.417 12.3403 11.151C13.0676 10.8849 13.8729 11.2588 14.139 11.9861L16.5501 18.577L23.5066 22.6152V14.2822L19.1805 9.06251C18.6863 8.46625 18.769 7.58228 19.3653 7.08809C19.9615 6.5939 20.8455 6.67665 21.3397 7.2729L23.5066 9.88737V6.29807C23.5066 5.52364 24.1344 4.89584 24.9088 4.89584Z" fill="#E9E9E9"/>
</svg>
