<svg width="50" height="50" viewBox="0 0 50 50" fill="none" xmlns="http://www.w3.org/2000/svg">
<path fill-rule="evenodd" clip-rule="evenodd" d="M19.695 32.7047V11.4197C19.695 10.3103 20.0136 9.27538 20.5643 8.40138C21.309 6.41833 23.1944 5 25.4202 5C27.8144 5 29.8146 6.64093 30.4252 8.86054C30.8148 9.62933 31.0343 10.4989 31.0343 11.4197V32.5706C31.7993 33.472 32.3466 34.5479 32.6269 35.7122C32.9848 37.1986 32.891 38.7609 32.3577 40.1923C31.8242 41.6237 30.8756 42.8582 29.6353 43.73C28.3948 44.6019 26.9219 45.0691 25.4124 45.0675C23.9028 45.0658 22.4309 44.5955 21.1922 43.7209C19.9537 42.8465 19.0077 41.61 18.4772 40.1774C17.9468 38.745 17.8562 37.1825 18.2172 35.6968C18.4847 34.5954 18.9913 33.5737 19.695 32.7047ZM19.695 35.9701C19.6881 35.997 19.6813 36.0239 19.6748 36.0509C19.428 37.0665 19.4435 38.1268 19.7151 39.129C19.7018 38.9704 19.695 38.8099 19.695 38.6478V35.9701ZM30.9335 39.7178C30.9397 39.7014 30.9459 39.685 30.9521 39.6685C31.381 38.5175 31.4567 37.2598 31.1686 36.0633C31.13 35.903 31.0852 35.745 31.0343 35.5894V38.6478C31.0343 39.0136 30.9996 39.3713 30.9335 39.7178Z" fill="#196EBD" fill-opacity="0.14"/>
<path d="M27.9438 38.0613C27.9438 39.6588 26.6746 40.9538 25.109 40.9538C23.5434 40.9538 22.2742 39.6588 22.2742 38.0613C22.2742 36.4638 23.5434 35.1687 25.109 35.1687C26.6746 35.1687 27.9438 36.4638 27.9438 38.0613Z" fill="#598BED"/>
<path fill-rule="evenodd" clip-rule="evenodd" d="M25.109 19.2596C25.8918 19.2596 26.5264 19.9072 26.5264 20.7059V36.1329C26.5264 36.9317 25.8918 37.5792 25.109 37.5792C24.3262 37.5792 23.6916 36.9317 23.6916 36.1329V20.7059C23.6916 19.9072 24.3262 19.2596 25.109 19.2596Z" fill="#598BED"/>
<rect x="31" y="35" width="1" height="5" fill="#D5E1EC"/>
<rect x="19" y="35" width="1" height="5" fill="#D5E1EC"/>
</svg>
