<svg width="50" height="50" viewBox="0 0 50 50" fill="none" xmlns="http://www.w3.org/2000/svg">
<path fill-rule="evenodd" clip-rule="evenodd" d="M39.9275 18.1851C40.853 14.7367 40.1404 11.6093 38.3855 9.11372C36.4561 6.37001 33.3368 4.47714 29.9844 3.63138C26.6262 2.78417 22.8892 2.9503 19.6656 4.50857C16.5611 6.00922 14.0313 8.75685 12.8137 12.8822C6.69296 14.2464 3.41913 19.0322 3.65809 23.8394C3.90926 28.892 7.98437 33.4114 15.3535 33.8367L15.3951 33.8391L18.5355 33.8448C18.5966 33.7438 18.6649 33.6448 18.7408 33.5485L18.7481 33.5392L26.1872 24.2444L26.1888 24.2423C26.9904 23.2365 28.241 23.008 29.2597 23.4306C30.2537 23.8431 30.9582 24.8344 30.9582 26.0389V32.2611H32.4334C33.6334 32.2611 34.4936 33.022 34.8797 33.8743L37.9354 33.8798L37.9912 33.8757C40.7678 33.6719 42.9099 32.6698 44.3472 31.1337C45.778 29.6047 46.4071 27.6549 46.3507 25.7532C46.2495 22.3396 43.9152 18.951 39.9275 18.1851Z" fill="#BFBFBF"/>
<path fill-rule="evenodd" clip-rule="evenodd" d="M16.3976 38.2391C17.1467 38.6676 17.4066 39.6222 16.9781 40.3712L14.665 44.4149C14.2365 45.1639 13.282 45.4238 12.5329 44.9953C11.7839 44.5669 11.524 43.6123 11.9525 42.8632L14.2655 38.8196C14.694 38.0705 15.6486 37.8106 16.3976 38.2391Z" fill="#3D54CE"/>
<path fill-rule="evenodd" clip-rule="evenodd" d="M39.3143 38.2391C40.0633 38.6676 40.3232 39.6222 39.8947 40.3712L37.5816 44.4149C37.1532 45.1639 36.1986 45.4238 35.4495 44.9953C34.7005 44.5669 34.4406 43.6123 34.8691 42.8632L37.1821 38.8196C37.6106 38.0705 38.5652 37.8106 39.3143 38.2391Z" fill="#3D54CE"/>
<path fill-rule="evenodd" clip-rule="evenodd" d="M9.51236 36.7063C10.2653 37.1279 10.5338 38.0801 10.1121 38.833L8.97398 40.8653C8.55232 41.6182 7.60014 41.8867 6.84723 41.465C6.09432 41.0434 5.82579 40.0912 6.24746 39.3383L7.38561 37.306C7.80727 36.5531 8.75946 36.2846 9.51236 36.7063Z" fill="#3D54CE"/>
<path fill-rule="evenodd" clip-rule="evenodd" d="M27.9415 26.9791L21.6667 34.8193H23.9693C24.8323 34.8193 25.5318 35.5188 25.5318 36.3818V43.0165L31.8065 35.1764H29.504C28.641 35.1764 27.9415 34.4768 27.9415 33.6139V26.9791Z" fill="#FFD911"/>
</svg>
