<svg width="50" height="50" viewBox="0 0 50 50" fill="none" xmlns="http://www.w3.org/2000/svg">
<path fill-rule="evenodd" clip-rule="evenodd" d="M13.2679 8.76396C16.1801 7.57725 20.1078 6.875 24.375 6.875C28.6423 6.875 32.57 7.57725 35.4822 8.76396C36.9348 9.35591 38.2023 10.0957 39.1286 10.9881C40.0588 11.8843 40.7292 13.0241 40.7292 14.3604C40.7292 15.6968 40.0588 16.8365 39.1286 17.7327C38.2023 18.6251 36.9348 19.3649 35.4822 19.9569C32.57 21.1436 28.6423 21.8458 24.375 21.8458C20.1078 21.8458 16.1801 21.1436 13.2679 19.9569C11.8153 19.3649 10.5478 18.6251 9.62151 17.7327C8.69131 16.8365 8.02087 15.6968 8.02087 14.3604C8.02087 13.0241 8.69131 11.8843 9.62151 10.9881C10.5478 10.0957 11.8153 9.35591 13.2679 8.76396Z" fill="#BDBDBD"/>
<path fill-rule="evenodd" clip-rule="evenodd" d="M10.0324 22.7548C10.6277 22.2736 11.5003 22.3661 11.9815 22.9614C12.6516 23.7903 14.1273 24.6788 16.3807 25.354C18.5835 26.0141 21.3493 26.4158 24.3751 26.4158C27.4009 26.4158 30.1667 26.0141 32.3695 25.354C34.6229 24.6788 36.0986 23.7903 36.7687 22.9614C37.2499 22.3661 38.1225 22.2736 38.7178 22.7548C39.313 23.236 39.4055 24.1087 38.9243 24.7039C37.731 26.1801 35.6114 27.2762 33.1652 28.0093C30.6683 28.7574 27.6302 29.1877 24.3751 29.1877C21.12 29.1877 18.0818 28.7574 15.585 28.0093C13.1388 27.2762 11.0192 26.1801 9.82587 24.7039C9.34467 24.1087 9.43714 23.236 10.0324 22.7548Z" fill="#DCDBDA"/>
<path fill-rule="evenodd" clip-rule="evenodd" d="M15.7876 31.6489C16.2511 31.0397 17.1207 30.9217 17.7298 31.3852C18.8074 32.2052 21.2618 32.9297 24.3746 32.9297C27.4875 32.9297 29.9419 32.2052 31.0195 31.3852C31.6286 30.9217 32.4982 31.0397 32.9617 31.6489C33.4252 32.258 33.3072 33.1276 32.698 33.5911C30.917 34.9464 27.7406 35.7016 24.3746 35.7016C21.0087 35.7016 17.8322 34.9464 16.0513 33.5911C15.4421 33.1276 15.3241 32.258 15.7876 31.6489Z" fill="#BDBDBD"/>
<path fill-rule="evenodd" clip-rule="evenodd" d="M21.6344 40.1656C21.9898 39.4851 22.8267 39.2188 23.5038 39.5709C23.7487 39.6983 24.5497 39.8432 25.7025 39.6422C26.8552 39.4411 27.5633 39.0329 27.7527 38.8298C28.2762 38.2682 29.1524 38.2357 29.7097 38.757C30.267 39.2783 30.2945 40.1562 29.7709 40.7177C28.9774 41.5688 27.5636 42.1312 26.1619 42.3757C24.7603 42.6202 23.2433 42.569 22.217 42.0354C21.54 41.6833 21.2791 40.8462 21.6344 40.1656Z" fill="#DCDBDA"/>
</svg>
