<svg width="43" height="36" viewBox="0 0 43 36" fill="none" xmlns="http://www.w3.org/2000/svg">
<path d="M23.5637 17.3452C23.4333 16.9864 23.0817 16.7834 22.7058 16.8499C20.734 17.1797 14.7153 18.4943 12.3205 22.6909C10.365 26.078 11.3216 30.316 14.4647 32.1307C17.6079 33.9454 21.752 32.6624 23.7075 29.2753C26.0953 25.1557 24.2525 19.2213 23.5637 17.3452Z" stroke="#2862D1" stroke-opacity="0.37" stroke-width="2.5" stroke-miterlimit="10"/>
<path d="M38.5286 10.14C38.4402 9.89676 38.2019 9.75917 37.9471 9.80424C36.6105 10.0278 32.5307 10.9189 30.9073 13.7636C29.5818 16.0596 30.2302 18.9324 32.3608 20.1625C34.4914 21.3926 37.3005 20.5229 38.6261 18.2269C40.2447 15.4344 38.9955 11.4117 38.5286 10.14Z" stroke="#2862D1" stroke-width="2.5" stroke-miterlimit="10"/>
<path d="M11.7008 3.41954C11.5977 3.13578 11.3197 2.97525 11.0224 3.02783C9.46291 3.28868 4.70285 4.32835 2.80885 7.64738C1.26227 10.3261 2.01877 13.6779 4.50464 15.1131C6.99051 16.5483 10.268 15.5336 11.8146 12.8548C13.7031 9.5967 12.2456 4.90328 11.7008 3.41954Z" stroke="#2862D1" stroke-width="2.5" stroke-miterlimit="10"/>
</svg>
