<svg width="50" height="50" viewBox="0 0 50 50" fill="none" xmlns="http://www.w3.org/2000/svg">
<path fill-rule="evenodd" clip-rule="evenodd" d="M21.8752 17.1787L21.8752 17.1695L13.0303 17.1694L21.5146 14.1036L21.5137 14.1011C21.6762 14.0601 21.8443 14.0456 22.0116 14.0581C22.0337 14.0597 22.0558 14.0618 22.0778 14.0644L22.0781 14.0644C22.3079 14.0915 22.5288 14.1693 22.7249 14.2922L22.7249 14.2922C22.921 14.4151 23.0873 14.58 23.2118 14.775L23.212 14.7753C23.3365 14.9704 23.4162 15.1906 23.4452 15.4202L23.4453 15.4206C23.4742 15.6503 23.4518 15.8835 23.3797 16.1035L23.3796 16.1037C23.3074 16.3237 23.1872 16.5249 23.0278 16.6927L23.0276 16.6929C22.8682 16.8606 22.6735 16.9909 22.4576 17.0742L22.4571 17.0743C22.4368 17.0822 22.4164 17.0895 22.3958 17.0965C22.2281 17.1532 22.0521 17.181 21.8752 17.1787ZM6.25 16.2962V20.2946L21.8431 20.2948C22.4353 20.3014 23.0243 20.1955 23.5785 19.9817L23.579 19.9815C24.0008 19.8187 24.3957 19.596 24.7518 19.3213C24.9414 19.1751 25.1201 19.014 25.2859 18.8395L25.2861 18.8393C25.7635 18.3368 26.1233 17.7345 26.3395 17.0758L26.3395 17.0757C26.5557 16.417 26.6228 15.7186 26.5361 15.0309L26.5361 15.0304C26.4493 14.3427 26.2108 13.6828 25.8379 13.0985L25.8377 13.0982C25.4646 12.5138 24.9664 12.0197 24.3791 11.6515L24.379 11.6515C24.1749 11.5236 23.9618 11.412 23.7417 11.3174C23.3285 11.1398 22.8906 11.0223 22.4415 10.9695L22.4411 10.9694C21.7719 10.8908 21.0939 10.9578 20.4533 11.1654L20.4528 11.1641L20.4049 11.1814L20.3992 11.1833L20.3986 11.1836L20.3986 11.1837L6.25 16.2962ZM6.25 29.6844V32.8946L26.8841 40.2354L26.8838 40.236C27.6306 40.5339 28.4338 40.6635 29.2364 40.6153C29.5449 40.5968 29.8505 40.5522 30.1498 40.4825C30.629 40.3708 31.0923 40.1945 31.5267 39.9575C32.2325 39.5724 32.8447 39.0364 33.3197 38.3875C33.7947 37.7387 34.1207 36.993 34.2746 36.2037C34.4284 35.4143 34.4064 34.6008 34.2099 33.8209C34.0135 33.0411 33.6475 32.3143 33.138 31.6921C32.8244 31.3092 32.4612 30.9717 32.0591 30.6881C31.8079 30.511 31.5415 30.3548 31.2625 30.2217C30.538 29.876 29.7463 29.6942 28.9436 29.6892V29.6845L6.25 29.6844ZM28.9224 32.8098L15.3361 32.8097L28.1003 37.3507L28.0991 37.354C28.4025 37.4659 28.7261 37.5138 29.0493 37.4944C29.393 37.4738 29.7278 37.3777 30.0301 37.2128C30.3323 37.0479 30.5945 36.8183 30.7979 36.5404C31.0013 36.2626 31.1409 35.9433 31.2068 35.6053C31.2727 35.2673 31.2632 34.9189 31.1791 34.5849C31.095 34.251 30.9382 33.9397 30.7201 33.6733C30.5019 33.4069 30.2277 33.1919 29.9169 33.0437C29.6066 32.8956 29.2676 32.8178 28.9238 32.8156L28.9223 32.8156L28.9223 32.815L28.9224 32.8098ZM35.9657 17.5752L35.9643 17.576L34.4275 14.8549L34.4258 14.8518L34.4288 14.8501C35.2609 14.3805 36.1895 14.1079 37.1434 14.0534C37.2817 14.0455 37.4201 14.0422 37.5582 14.0435C38.3735 14.0511 39.1808 14.2182 39.9342 14.5369C40.8153 14.9096 41.599 15.4795 42.2252 16.203C42.8513 16.9264 43.303 17.7839 43.5456 18.7094C43.7883 19.635 43.8152 20.6039 43.6245 21.5416C43.4338 22.4792 43.0304 23.3606 42.4455 24.1177C41.9454 24.7651 41.324 25.3069 40.6174 25.7137C40.4976 25.7826 40.3754 25.8477 40.2509 25.9088C39.392 26.3299 38.4478 26.5482 37.4913 26.5469V26.5464H6.25V23.4214H37.4956L37.4956 23.4181C37.9735 23.4187 38.4451 23.3097 38.8742 23.0993C39.3032 22.8889 39.6783 22.5828 39.9705 22.2046C40.2626 21.8264 40.4641 21.3861 40.5594 20.9177C40.6547 20.4494 40.6412 19.9653 40.52 19.503C40.3988 19.0406 40.1731 18.6123 39.8604 18.2509C39.5476 17.8895 39.1561 17.6048 38.716 17.4186C38.2759 17.2325 37.7989 17.1499 37.3219 17.1771C36.8453 17.2044 36.3814 17.3406 35.9657 17.5752Z" fill="url(#paint0_linear_9_4101)"/>
<defs>
<linearGradient id="paint0_linear_9_4101" x1="25" y1="10.9375" x2="25" y2="40.6251" gradientUnits="userSpaceOnUse">
<stop stop-color="#CED3EA"/>
<stop offset="1" stop-color="#7E83A9"/>
</linearGradient>
</defs>
</svg>
