<svg width="42" height="41" viewBox="0 0 42 41" fill="none" xmlns="http://www.w3.org/2000/svg">
<path d="M26.1135 22.1546H35.1647C37.7044 22.1546 39.7499 19.9601 39.7499 17.2759C39.7499 14.5735 37.6874 12.3972 35.1647 12.3972C32.6249 12.3972 30.5794 14.5917 30.5794 17.2759" stroke="#5F9CE4" stroke-width="3" stroke-miterlimit="10" stroke-linecap="round" stroke-linejoin="round"/>
<path d="M7.36353 17.8381H20.382C23.5567 17.8381 26.1135 14.9828 26.1135 11.4903C26.1135 7.97428 23.5354 5.14255 20.382 5.14255C17.2073 5.14255 14.6504 7.99788 14.6504 11.4903" stroke="#5F9CE4" stroke-width="3" stroke-miterlimit="10" stroke-linecap="round" stroke-linejoin="round"/>
<path d="M2.25 25.9996H20.3821C23.5568 25.9996 26.1136 28.8549 26.1136 32.3474C26.1136 35.8635 23.5355 38.6952 20.3821 38.6952C17.2074 38.6952 14.6506 35.8399 14.6506 32.3474" stroke="#5F9CE4" stroke-width="3" stroke-miterlimit="10" stroke-linecap="round" stroke-linejoin="round"/>
<path opacity="0.9" d="M36.9091 2.30175L32.7223 6.48857M36.9091 6.48857L32.7223 2.30175" stroke="#1E5EA9" stroke-width="2" stroke-linecap="round"/>
<path opacity="0.9" d="M35.9223 33.0632L31.7354 37.25M35.9223 37.25L31.7354 33.0632" stroke="#1E5EA9" stroke-width="2" stroke-linecap="round"/>
</svg>
